<svg version="1.1" id="Layer_1" xmlns="http://www.w3.org/2000/svg" xmlns:xlink="http://www.w3.org/1999/xlink" x="0px" y="0px"
	 width="100%" viewBox="0 0 256 256" enable-background="new 0 0 256 256" xml:space="preserve">
<path fill="#3399FF" opacity="1.000000" stroke="none" 
	d="
M121.000000,257.000000 
	C81.017349,257.000000 41.034695,257.000000 1.026021,257.000000 
	C1.026021,171.721024 1.026021,86.442047 1.026021,1.081532 
	C86.241905,1.081532 171.483917,1.081532 256.862976,1.081532 
	C256.862976,86.333199 256.862976,171.666565 256.862976,257.000000 
	C216.902649,257.000000 176.919983,257.000000 136.654373,256.675964 
	C152.914490,252.249969 163.405472,242.209976 166.900528,225.279373 
	C167.022919,224.686508 167.431717,224.152756 167.922821,223.182861 
	C168.424133,221.331772 168.956436,219.889648 168.958786,218.446686 
	C169.007446,188.426315 169.019241,158.405777 168.925293,128.385635 
	C168.920761,126.939804 167.879807,125.497223 167.185333,123.671356 
	C163.850174,106.795486 154.426453,95.862358 137.973785,91.789856 
	C123.880051,88.301254 111.327820,92.377953 101.048195,102.096573 
	C95.003716,107.811180 92.343063,115.865517 90.402664,124.251114 
	C89.727234,125.838821 89.051468,127.222389 89.048676,128.607315 
	C88.987900,158.794785 88.975296,188.982498 89.076294,219.169754 
	C89.081650,220.767227 90.169769,222.361084 90.893379,224.328644 
	C94.216057,240.085815 102.875664,250.624939 118.109138,255.397873 
	C119.138985,255.720566 120.039398,256.456329 121.000000,257.000000 
z"/>
<path fill="#FEFEFF" opacity="1.000000" stroke="none" 
	d="
M121.466118,257.000000 
	C120.039398,256.456329 119.138985,255.720566 118.109138,255.397873 
	C102.875664,250.624939 94.216057,240.085815 90.911362,223.862976 
	C90.765106,190.032730 90.740440,157.040161 90.715775,124.047607 
	C92.343063,115.865517 95.003716,107.811180 101.048195,102.096573 
	C111.327820,92.377953 123.880051,88.301254 137.973785,91.789856 
	C154.426453,95.862358 163.850174,106.795486 167.164673,124.135620 
	C167.357147,148.235596 167.424561,171.489563 167.515625,194.743469 
	C167.553284,204.359573 167.641693,213.975464 167.707016,223.591461 
	C167.431717,224.152756 167.022919,224.686508 166.900528,225.279373 
	C163.405472,242.209976 152.914490,252.249969 136.185715,256.675964 
	C131.310745,257.000000 126.621490,257.000000 121.466118,257.000000 
M117.020905,151.730942 
	C123.425552,154.981033 130.266037,155.228989 136.878967,153.285751 
	C155.513290,147.809937 159.732437,122.872849 146.951172,111.147957 
	C132.387451,97.787941 110.064171,102.955894 104.457420,121.802917 
	C101.105255,133.071182 105.587219,144.182129 117.020905,151.730942 
z"/>
<path fill="#1088FF" opacity="1.000000" stroke="none" 
	d="
M90.402664,124.251114 
	C90.740440,157.040161 90.765106,190.032730 90.771790,223.490952 
	C90.169769,222.361084 89.081650,220.767227 89.076294,219.169754 
	C88.975296,188.982498 88.987900,158.794785 89.048676,128.607315 
	C89.051468,127.222389 89.727234,125.838821 90.402664,124.251114 
z"/>
<path fill="#0F87FF" opacity="1.000000" stroke="none" 
	d="
M167.922821,223.182861 
	C167.641693,213.975464 167.553284,204.359573 167.515625,194.743469 
	C167.424561,171.489563 167.357147,148.235596 167.300842,124.517380 
	C167.879807,125.497223 168.920761,126.939804 168.925293,128.385635 
	C169.019241,158.405777 169.007446,188.426315 168.958786,218.446686 
	C168.956436,219.889648 168.424133,221.331772 167.922821,223.182861 
z"/>
<path fill="#3399FF" opacity="1.000000" stroke="none" 
	d="
M116.695068,151.531815 
	C105.587219,144.182129 101.105255,133.071182 104.457420,121.802917 
	C110.064171,102.955894 132.387451,97.787941 146.951172,111.147957 
	C159.732437,122.872849 155.513290,147.809937 136.878967,153.285751 
	C130.266037,155.228989 123.425552,154.981033 116.695068,151.531815 
z"/>
</svg>